<svg width="827" height="168" viewBox="0 0 827 168" fill="none" xmlns="http://www.w3.org/2000/svg">
<path d="M72.4782 0.0146579L105.157 0L177.748 167.664L145.045 167.655C140.496 156.76 135.422 145.898 130.787 134.97C127.391 143.145 122.446 147.705 115.807 153.018C117.641 149.482 119.258 145.838 120.654 142.108C122.623 136.712 123.188 133.259 123.315 127.545C123.612 114.221 116.691 104.188 111.306 92.5271C107.907 101.244 107.638 102.914 107.612 112.322C106.048 110.642 104.616 109.132 103.544 107.041C99.0278 98.2427 102.402 87.0538 102.612 77.5478C102.726 72.4229 102.398 68.8767 101.238 63.9084C98.1569 51.9103 91.6974 44.0483 82.0796 36.7805C90.914 67.8397 63.2049 78.5559 55.5957 105.068C51.4956 119.354 55.2219 131.989 62.3265 144.541C55.4631 140.278 52.8348 137.926 48.5742 131.186C44.4805 140.217 40.6744 149.416 36.6387 158.475C35.2914 161.499 33.954 164.572 32.7428 167.65L0 167.664L49.0888 53.9709L65.4519 16.3767C67.5885 11.425 70.6675 4.93678 72.4782 0.0146579Z" fill="url(#paint0_linear_43_73)"/>
<path d="M89.919 80.1094C89.9714 80.2033 90.0238 80.2972 90.0762 80.3911C85.8878 91.0498 85.7743 102.553 93.0045 112.303C96.9898 117.433 101.512 121.641 103.875 127.621C108.653 139.719 102.333 151.453 94.7012 161.371C93.8802 162.437 90.0172 167.634 89.0891 167.665L89.0848 166.95C89.2944 155.842 85.6454 149.895 78.1488 141.551C72.4131 135.168 68.3762 125.278 68.7473 117.065C69.3434 103.87 79.1221 89.1002 89.919 80.1094Z" fill="url(#paint1_linear_43_73)"/>
<path d="M738.248 96.0707L772.019 9.00244H793.265L826.667 96.0707H803.703L778.528 22.8793H786.51L760.721 96.0707H738.248ZM758.756 80.843V63.4048H806.773V80.843H758.756Z" fill="black"/>
<path d="M690.283 64.8784L657.002 9.00244H682.177L707.598 54.3172H689.914L715.335 9.00244H740.018L706.493 64.8784H690.283ZM687.704 96.0707V55.9137H709.686V96.0707H687.704Z" fill="black"/>
<path d="M627.281 96.0707L594.369 50.6331L625.93 9.00244H652.701L616.719 54.1944V46.4578L654.052 96.0707H627.281ZM574.475 96.0707V9.00244H596.457V96.0707H574.475Z" fill="black"/>
<path d="M516.018 97.4216C508.65 97.4216 502.141 95.907 496.492 92.8778C490.925 89.7668 486.586 85.4686 483.475 79.9833C480.364 74.4981 478.808 68.276 478.808 61.3171V9.00244H500.667V62.9135C500.667 66.0246 501.322 68.7263 502.632 71.0186C504.024 73.2291 505.866 74.9484 508.158 76.1764C510.533 77.3226 513.152 77.8957 516.018 77.8957C518.965 77.8957 521.544 77.3226 523.755 76.1764C525.965 74.9484 527.725 73.2291 529.035 71.0186C530.345 68.8081 531 66.1474 531 63.0363V9.00244H553.105V61.4399C553.105 68.3988 551.549 74.6209 548.438 80.1061C545.327 85.5095 540.988 89.7668 535.421 92.8778C529.936 95.907 523.468 97.4216 516.018 97.4216Z" fill="black"/>
<path d="M406.116 96.0707V9.00244H428.098V96.0707H406.116ZM423.554 96.0707V77.1588H465.554V96.0707H423.554Z" fill="black"/>
<path d="M347.656 97.4216C340.287 97.4216 333.779 95.907 328.13 92.8778C322.563 89.7668 318.223 85.4686 315.112 79.9833C312.001 74.4981 310.446 68.276 310.446 61.3171V9.00244H332.305V62.9135C332.305 66.0246 332.96 68.7263 334.27 71.0186C335.662 73.2291 337.504 74.9484 339.796 76.1764C342.17 77.3226 344.79 77.8957 347.656 77.8957C350.603 77.8957 353.182 77.3226 355.392 76.1764C357.603 74.9484 359.363 73.2291 360.673 71.0186C361.983 68.8081 362.638 66.1474 362.638 63.0363V9.00244H384.743V61.4399C384.743 68.3988 383.187 74.6209 380.076 80.1061C376.965 85.5095 372.626 89.7668 367.059 92.8778C361.573 95.907 355.106 97.4216 347.656 97.4216Z" fill="black"/>
<path d="M208.817 96.0707L242.589 9.00244H263.834L297.237 96.0707H274.272L249.097 22.8793H257.08L231.291 96.0707H208.817ZM229.326 80.843V63.4048H277.342V80.843H229.326Z" fill="black"/>
<path d="M769.473 158.662C767.198 158.662 765.255 158.246 763.646 157.413C762.036 156.581 760.607 155.374 759.358 153.792L762.022 151.128C762.938 152.404 763.992 153.375 765.186 154.041C766.379 154.68 767.85 154.999 769.598 154.999C771.319 154.999 772.693 154.624 773.719 153.875C774.774 153.126 775.301 152.099 775.301 150.795C775.301 149.712 775.052 148.838 774.552 148.172C774.053 147.506 773.373 146.965 772.512 146.549C771.68 146.105 770.764 145.716 769.765 145.383C768.766 145.022 767.767 144.648 766.768 144.259C765.769 143.843 764.853 143.343 764.02 142.761C763.188 142.15 762.508 141.359 761.98 140.388C761.481 139.417 761.231 138.195 761.231 136.725C761.231 135.087 761.62 133.7 762.397 132.562C763.202 131.396 764.284 130.508 765.644 129.898C767.031 129.26 768.585 128.94 770.306 128.94C772.193 128.94 773.886 129.315 775.385 130.064C776.883 130.786 778.104 131.743 779.048 132.937L776.384 135.601C775.523 134.602 774.594 133.852 773.595 133.353C772.623 132.853 771.499 132.604 770.223 132.604C768.669 132.604 767.434 132.95 766.518 133.644C765.602 134.31 765.144 135.254 765.144 136.475C765.144 137.446 765.394 138.237 765.893 138.848C766.421 139.43 767.101 139.93 767.933 140.346C768.766 140.762 769.682 141.151 770.681 141.512C771.707 141.845 772.72 142.219 773.719 142.636C774.719 143.052 775.634 143.579 776.467 144.218C777.299 144.856 777.966 145.688 778.465 146.715C778.992 147.714 779.256 148.977 779.256 150.503C779.256 153.056 778.368 155.054 776.592 156.497C774.843 157.941 772.471 158.662 769.473 158.662Z" fill="#E81D23"/>
<path d="M729.969 158.247V129.358H732.717L733.882 133.895V158.247H729.969ZM749.951 158.247L732.217 134.561L732.717 129.358L750.492 153.002L749.951 158.247ZM749.951 158.247L748.785 153.959V129.358H752.698V158.247H749.951Z" fill="#E81D23"/>
<path d="M707.563 158.662C705.509 158.662 703.594 158.287 701.818 157.538C700.042 156.761 698.488 155.693 697.156 154.333C695.824 152.945 694.783 151.35 694.034 149.546C693.312 147.742 692.952 145.813 692.952 143.76C692.952 141.678 693.312 139.75 694.034 137.973C694.783 136.17 695.81 134.588 697.114 133.228C698.447 131.868 699.987 130.814 701.735 130.064C703.511 129.315 705.426 128.94 707.48 128.94C709.533 128.94 711.434 129.315 713.183 130.064C714.959 130.814 716.513 131.868 717.845 133.228C719.177 134.588 720.218 136.17 720.967 137.973C721.716 139.777 722.091 141.72 722.091 143.801C722.091 145.855 721.716 147.784 720.967 149.587C720.218 151.391 719.177 152.973 717.845 154.333C716.541 155.693 715 156.761 713.224 157.538C711.476 158.287 709.589 158.662 707.563 158.662ZM707.48 154.916C709.561 154.916 711.379 154.444 712.933 153.5C714.515 152.529 715.764 151.211 716.679 149.546C717.595 147.853 718.053 145.924 718.053 143.76C718.053 142.15 717.79 140.679 717.262 139.347C716.735 137.987 716 136.808 715.056 135.809C714.112 134.81 713.002 134.047 711.726 133.519C710.449 132.964 709.034 132.687 707.48 132.687C705.426 132.687 703.608 133.159 702.027 134.102C700.472 135.046 699.237 136.35 698.322 138.015C697.434 139.68 696.99 141.595 696.99 143.76C696.99 145.369 697.239 146.868 697.739 148.255C698.266 149.615 698.988 150.795 699.903 151.794C700.847 152.765 701.957 153.528 703.234 154.083C704.538 154.638 705.953 154.916 707.48 154.916Z" fill="#E81D23"/>
<path d="M681.186 158.247V129.358H685.099V158.247H681.186Z" fill="#E81D23"/>
<path d="M660.325 158.247V130.19H664.238V158.247H660.325ZM650.5 132.938V129.358H674.02V132.938H650.5Z" fill="#E81D23"/>
<path d="M632.983 158.663C630.846 158.663 628.931 158.192 627.238 157.248C625.573 156.277 624.255 154.958 623.284 153.293C622.312 151.601 621.827 149.686 621.827 147.549V129.358H625.74V147.466C625.74 148.992 626.059 150.31 626.697 151.42C627.335 152.53 628.196 153.391 629.278 154.001C630.388 154.612 631.623 154.917 632.983 154.917C634.398 154.917 635.633 154.612 636.688 154.001C637.77 153.391 638.617 152.53 639.227 151.42C639.865 150.31 640.185 149.006 640.185 147.507V129.358H644.139V147.591C644.139 149.727 643.653 151.628 642.682 153.293C641.711 154.958 640.393 156.277 638.728 157.248C637.062 158.192 635.148 158.663 632.983 158.663Z" fill="#E81D23"/>
<path d="M597.711 158.247V129.358H601.624V158.247H597.711ZM600.376 158.247V154.667H615.861V158.247H600.376Z" fill="#E81D23"/>
<path d="M575.317 158.662C573.263 158.662 571.348 158.287 569.572 157.538C567.796 156.761 566.242 155.693 564.91 154.333C563.578 152.945 562.537 151.35 561.788 149.546C561.066 147.742 560.706 145.813 560.706 143.76C560.706 141.678 561.066 139.75 561.788 137.973C562.537 136.17 563.564 134.588 564.868 133.228C566.2 131.868 567.741 130.814 569.489 130.064C571.265 129.315 573.18 128.94 575.234 128.94C577.287 128.94 579.188 129.315 580.937 130.064C582.713 130.814 584.267 131.868 585.599 133.228C586.931 134.588 587.972 136.17 588.721 137.973C589.47 139.777 589.845 141.72 589.845 143.801C589.845 145.855 589.47 147.784 588.721 149.587C587.972 151.391 586.931 152.973 585.599 154.333C584.295 155.693 582.754 156.761 580.978 157.538C579.23 158.287 577.343 158.662 575.317 158.662ZM575.234 154.916C577.315 154.916 579.133 154.444 580.687 153.5C582.269 152.529 583.518 151.211 584.433 149.546C585.349 147.853 585.807 145.924 585.807 143.76C585.807 142.15 585.543 140.679 585.016 139.347C584.489 137.987 583.753 136.808 582.81 135.809C581.866 134.81 580.756 134.047 579.48 133.519C578.203 132.964 576.788 132.687 575.234 132.687C573.18 132.687 571.362 133.159 569.78 134.102C568.226 135.046 566.991 136.35 566.076 138.015C565.187 139.68 564.743 141.595 564.743 143.76C564.743 145.369 564.993 146.868 565.493 148.255C566.02 149.615 566.742 150.795 567.657 151.794C568.601 152.765 569.711 153.528 570.988 154.083C572.292 154.638 573.707 154.916 575.234 154.916Z" fill="#E81D23"/>
<path d="M544.485 158.662C542.21 158.662 540.267 158.246 538.657 157.413C537.048 156.581 535.618 155.374 534.37 153.792L537.034 151.128C537.95 152.404 539.004 153.375 540.198 154.041C541.391 154.68 542.862 154.999 544.61 154.999C546.331 154.999 547.704 154.624 548.731 153.875C549.786 153.126 550.313 152.099 550.313 150.795C550.313 149.712 550.063 148.838 549.564 148.172C549.064 147.506 548.384 146.965 547.524 146.549C546.691 146.105 545.776 145.716 544.777 145.383C543.777 145.022 542.778 144.648 541.779 144.259C540.78 143.843 539.865 143.343 539.032 142.761C538.199 142.15 537.519 141.359 536.992 140.388C536.493 139.417 536.243 138.195 536.243 136.725C536.243 135.087 536.631 133.7 537.408 132.562C538.213 131.396 539.296 130.508 540.655 129.898C542.043 129.26 543.597 128.94 545.318 128.94C547.205 128.94 548.898 129.315 550.396 130.064C551.895 130.786 553.116 131.743 554.06 132.937L551.395 135.601C550.535 134.602 549.605 133.852 548.606 133.353C547.635 132.853 546.511 132.604 545.234 132.604C543.68 132.604 542.445 132.95 541.53 133.644C540.614 134.31 540.156 135.254 540.156 136.475C540.156 137.446 540.406 138.237 540.905 138.848C541.432 139.43 542.112 139.93 542.945 140.346C543.777 140.762 544.693 141.151 545.692 141.512C546.719 141.845 547.732 142.219 548.731 142.636C549.73 143.052 550.646 143.579 551.479 144.218C552.311 144.856 552.977 145.688 553.477 146.715C554.004 147.714 554.268 148.977 554.268 150.503C554.268 153.056 553.38 155.054 551.604 156.497C549.855 157.941 547.482 158.662 544.485 158.662Z" fill="#E81D23"/>
<path d="M505.455 146.508L494.09 129.358H498.628L507.786 143.386H505.746L514.946 129.358H519.4L507.952 146.508H505.455ZM504.789 158.247V143.927H508.702V158.247H504.789Z" fill="#E81D23"/>
<path d="M477.391 158.247V130.19H481.304V158.247H477.391ZM467.567 132.938V129.358H491.087V132.938H467.567Z" fill="#E81D23"/>
<path d="M443.774 158.247V129.358H447.687V158.247H443.774ZM446.438 158.247V154.667H463.006V158.247H446.438ZM446.438 145.176V141.763H461.632V145.176H446.438ZM446.438 132.938V129.358H462.798V132.938H446.438Z" fill="#E81D23"/>
<path d="M417.7 158.247V129.358H421.613V158.247H417.7ZM420.364 145.551V141.971H435.433V145.551H420.364ZM420.364 132.938V129.358H436.141V132.938H420.364Z" fill="#E81D23"/>
<path d="M384.422 158.247L396.245 129.358H399.075L410.856 158.247H406.61L396.911 133.812H398.368L388.585 158.247H384.422ZM390.042 151.712V148.298H405.236V151.712H390.042Z" fill="#E81D23"/>
<path d="M369.925 158.662C367.649 158.662 365.706 158.246 364.097 157.413C362.487 156.581 361.058 155.374 359.809 153.792L362.473 151.128C363.389 152.404 364.444 153.375 365.637 154.041C366.83 154.68 368.301 154.999 370.05 154.999C371.77 154.999 373.144 154.624 374.171 153.875C375.225 153.126 375.753 152.099 375.753 150.795C375.753 149.712 375.503 148.838 375.003 148.172C374.504 147.506 373.824 146.965 372.963 146.549C372.131 146.105 371.215 145.716 370.216 145.383C369.217 145.022 368.218 144.648 367.219 144.259C366.22 143.843 365.304 143.343 364.471 142.761C363.639 142.15 362.959 141.359 362.432 140.388C361.932 139.417 361.682 138.195 361.682 136.725C361.682 135.087 362.071 133.7 362.848 132.562C363.653 131.396 364.735 130.508 366.095 129.898C367.482 129.26 369.037 128.94 370.757 128.94C372.644 128.94 374.337 129.315 375.836 130.064C377.334 130.786 378.555 131.743 379.499 132.937L376.835 135.601C375.975 134.602 375.045 133.852 374.046 133.353C373.074 132.853 371.951 132.604 370.674 132.604C369.12 132.604 367.885 132.95 366.969 133.644C366.053 134.31 365.595 135.254 365.595 136.475C365.595 137.446 365.845 138.237 366.345 138.848C366.872 139.43 367.552 139.93 368.384 140.346C369.217 140.762 370.133 141.151 371.132 141.512C372.159 141.845 373.172 142.219 374.171 142.636C375.17 143.052 376.086 143.579 376.918 144.218C377.751 144.856 378.417 145.688 378.916 146.715C379.444 147.714 379.707 148.977 379.707 150.503C379.707 153.056 378.819 155.054 377.043 156.497C375.295 157.941 372.922 158.662 369.925 158.662Z" fill="#E81D23"/>
<path d="M323.688 158.247V129.358H327.601V158.247H323.688ZM326.352 158.247V154.667H342.92V158.247H326.352ZM326.352 145.176V141.763H341.546V145.176H326.352ZM326.352 132.938V129.358H342.712V132.938H326.352Z" fill="#E81D23"/>
<path d="M298.158 145.676V142.387H305.984C307.677 142.387 308.981 141.957 309.897 141.097C310.813 140.236 311.271 139.071 311.271 137.6C311.271 136.212 310.813 135.061 309.897 134.145C309.009 133.229 307.719 132.771 306.026 132.771H298.158V129.358H306.151C307.982 129.358 309.578 129.719 310.938 130.44C312.298 131.134 313.338 132.091 314.06 133.312C314.809 134.534 315.184 135.935 315.184 137.517C315.184 139.154 314.809 140.583 314.06 141.804C313.338 143.025 312.298 143.983 310.938 144.677C309.578 145.343 307.982 145.676 306.151 145.676H298.158ZM295.536 158.247V129.358H299.449V158.247H295.536ZM312.187 158.247L301.697 145.301L305.401 144.011L317.14 158.247H312.187Z" fill="#E81D23"/>
<path d="M282.307 158.247V129.358H286.22V158.247H282.307Z" fill="#E81D23"/>
<path d="M256.229 158.247V129.358H260.142V158.247H256.229ZM258.893 145.551V141.971H273.962V145.551H258.893ZM258.893 132.938V129.358H274.67V132.938H258.893Z" fill="#E81D23"/>
<defs>
<linearGradient id="paint0_linear_43_73" x1="88.874" y1="0" x2="88.6208" y2="178.761" gradientUnits="userSpaceOnUse">
<stop stop-color="#E81D23"/>
<stop offset="0.583902" stop-color="#EB4B21"/>
<stop offset="1" stop-color="#F8CF45"/>
</linearGradient>
<linearGradient id="paint1_linear_43_73" x1="87.1282" y1="80.1094" x2="87.1282" y2="167.665" gradientUnits="userSpaceOnUse">
<stop stop-color="#E81D23"/>
<stop offset="0.720203" stop-color="#EB4B21"/>
<stop offset="1" stop-color="#F8CF45"/>
</linearGradient>
</defs>
</svg>
